HIERARCHY
ROOT Hips
{
 OFFSET 0.000000 0.000000 0.000000
 CHANNELS 6 Xposition Yposition Zposition Yrotation Xrotation Zrotation
 JOINT Chest
 {
  OFFSET 0.000000 9.585900 0.002600
  CHANNELS 3 Yrotation Xrotation Zrotation
  JOINT Chest2
  {
   OFFSET 0.000000 9.601200 -0.005300
   CHANNELS 3 Yrotation Xrotation Zrotation
   JOINT Chest3
   {
    OFFSET 0.000000 9.561800 0.000000
    CHANNELS 3 Yrotation Xrotation Zrotation
    JOINT Chest4
    {
     OFFSET 0.000000 9.552100 0.000000
     CHANNELS 3 Yrotation Xrotation Zrotation
     JOINT Neck
     {
      OFFSET 0.000000 14.453000 0.000000
      CHANNELS 3 Yrotation Xrotation Zrotation
      JOINT Head
      {
       OFFSET 0.000000 8.936500 -0.011300
       CHANNELS 3 Yrotation Xrotation Zrotation
       End Site
       {
        OFFSET 0.000000 17.073600 -0.006000
       }
      }
     }
     JOINT RightCollar
     {
      OFFSET -2.921100 9.558500 0.000000
      CHANNELS 3 Yrotation Xrotation Zrotation
      JOINT RightShoulder
      {
       OFFSET -13.519700 0.000000 0.000000
       CHANNELS 3 Yrotation Xrotation Zrotation
       JOINT RightElbow
       {
        OFFSET 0.000000 -29.696600 0.000000
        CHANNELS 3 Yrotation Xrotation Zrotation
        JOINT RightWrist
        {
         OFFSET 0.000000 -24.004700 0.000000
         CHANNELS 3 Yrotation Xrotation Zrotation
         End Site
         {
          OFFSET 0.000000 -17.728500 0.000000
         }
        }
       }
      }
     }
     JOINT LeftCollar
     {
      OFFSET 2.921100 9.558500 0.000000
      CHANNELS 3 Yrotation Xrotation Zrotation
      JOINT LeftShoulder
      {
       OFFSET 13.519700 0.000000 0.000000
       CHANNELS 3 Yrotation Xrotation Zrotation
       JOINT LeftElbow
       {
        OFFSET 0.000000 -29.696600 0.000000
        CHANNELS 3 Yrotation Xrotation Zrotation
        JOINT LeftWrist
        {
         OFFSET 0.000000 -24.004700 0.000000
         CHANNELS 3 Yrotation Xrotation Zrotation
         End Site
         {
          OFFSET 0.000000 -17.728500 0.000000
         }
        }
       }
      }
     }
    }
   }
  }
 }
 JOINT RightHip
 {
  OFFSET -7.771700 -0.012900 -0.001300
  CHANNELS 3 Yrotation Xrotation Zrotation
  JOINT RightKnee
  {
   OFFSET 0.000000 -40.869800 0.001200
   CHANNELS 3 Yrotation Xrotation Zrotation
   JOINT RightAnkle
   {
    OFFSET 0.000000 -39.717900 0.002100
    CHANNELS 3 Yrotation Xrotation Zrotation
    JOINT RightToe
    {
     OFFSET 0.000000 -4.965400 11.033500
     CHANNELS 3 Yrotation Xrotation Zrotation
     End Site
     {
      OFFSET 0.000000 -1.423100 5.872300
     }
    }
   }
  }
 }
 JOINT LeftHip
 {
  OFFSET 7.771700 -0.012900 -0.001300
  CHANNELS 3 Yrotation Xrotation Zrotation
  JOINT LeftKnee
  {
   OFFSET 0.000000 -40.869800 0.001200
   CHANNELS 3 Yrotation Xrotation Zrotation
   JOINT LeftAnkle
   {
    OFFSET 0.000000 -39.717900 0.002100
    CHANNELS 3 Yrotation Xrotation Zrotation
    JOINT LeftToe
    {
     OFFSET 0.000000 -4.965400 11.033500
     CHANNELS 3 Yrotation Xrotation Zrotation
     End Site
     {
      OFFSET 0.000000 -1.423100 5.872300
     }
    }
   }
  }
 }
}
MOTION
Frames: 5
Frame Time: 0.008333
-192.732668 58.019358 28.700976 171.862626 -48.877952 -3.440904 5.465528 22.200933 3.249734 2.835324 12.723137 1.634309 3.625345 15.889380 2.157806 2.831534 12.736231 1.645485 0.770322 15.651006 2.470033 0.546774 -6.664219 4.366917 1.341814 3.840182 0.640296 1.960268 -14.041451 -9.805346 -74.422148 -76.140961 109.058853 12.673801 -0.080706 -10.712061 -10.864946 1.027172 -1.133185 -0.613590 -11.709709 16.105765 56.890350 -60.708449 -100.425872 -4.177163 -6.339064 -2.378970 4.093632 -23.693977 0.493210 -38.222509 73.198851 -39.700274 5.775081 -12.583819 9.469071 0.053843 -0.183231 0.034727 -2.128562 -22.253980 11.943355 52.888694 79.507553 52.612098 4.514200 -16.016333 -16.203964 0.049129 0.172027 0.019556
-192.734524 58.018903 28.701440 171.862917 -48.865429 -3.440573 5.466392 22.201914 3.251077 2.832674 12.723561 1.635682 3.622144 15.890031 2.159298 2.829646 12.733456 1.649275 0.764998 15.624345 2.448052 0.542485 -6.699227 4.332128 1.379626 3.828090 0.635167 1.947972 -14.030947 -9.821805 -73.579214 -76.052310 108.246327 12.707763 0.031018 -10.829137 -10.865994 1.013144 -1.149250 -0.627023 -11.720096 16.115772 56.392944 -60.733072 -99.909716 -4.107411 -6.456327 -2.272898 4.092471 -23.705455 0.492031 -38.219999 73.195969 -39.701268 5.779432 -12.584568 9.470870 0.048352 -0.180884 0.031296 -2.129619 -22.266007 11.939886 52.867368 79.505511 52.591943 4.519862 -16.014848 -16.205662 0.051049 0.173369 0.020893
-192.737432 58.018318 28.702035 171.858566 -48.851611 -3.430961 5.457943 22.202264 3.242085 2.832192 12.723241 1.637635 3.621521 15.889489 2.161969 2.833196 12.731816 1.647826 0.758915 15.592924 2.424730 0.534872 -6.806865 4.257591 1.410579 3.822727 0.628740 1.937276 -14.024231 -9.836672 -72.887795 -75.987041 107.572772 12.763916 0.143255 -10.937731 -10.868638 1.001949 -1.169217 -0.631585 -11.723559 16.127958 55.897846 -60.734112 -99.429404 -4.018709 -6.560099 -2.193191 4.098263 -23.720092 0.484589 -38.201297 73.200110 -39.688082 5.770964 -12.583714 9.477902 0.046990 -0.180750 0.028746 -2.127248 -22.278936 11.929641 52.847358 79.503329 52.571340 4.521290 -16.015688 -16.204737 0.051573 0.175356 0.020942
-192.739897 58.018186 28.702597 171.850431 -48.840558 -3.421704 5.460222 22.201438 3.241292 2.827487 12.736450 1.643675 3.622297 15.886084 2.162537 2.832190 12.718246 1.636987 0.754491 15.562660 2.404926 0.529567 -6.896395 4.201371 1.429521 3.823303 0.626262 1.951450 -13.980759 -9.878769 -72.501287 -75.935668 107.178069 12.837843 0.249162 -11.041367 -10.875243 1.001530 -1.180667 -0.645256 -11.740621 16.141006 55.374283 -60.681272 -98.933384 -3.940423 -6.659579 -2.125219 4.104575 -23.734521 0.481031 -38.202117 73.204919 -39.691765 5.764770 -12.581973 9.479957 0.046000 -0.182842 0.027358 -2.123158 -22.289287 11.924235 52.852650 79.499075 52.575354 4.520139 -16.016593 -16.206553 0.047206 0.176050 0.022527
-192.742620 58.018114 28.703347 171.850679 -48.828575 -3.418284 5.448233 22.221583 3.238727 2.834401 12.713227 1.638293 3.622519 15.897982 2.168538 2.832855 12.704264 1.631013 0.750638 15.544692 2.392463 0.525859 -6.990077 4.147434 1.433793 3.820424 0.622361 1.954637 -13.960946 -9.893287 -72.076336 -75.929042 106.758342 12.918040 0.345507 -11.140022 -10.884144 1.002338 -1.190776 -0.648703 -11.757591 16.154525 54.816299 -60.589121 -98.432902 -3.889166 -6.768778 -2.056452 4.104540 -23.748652 0.476698 -38.203431 73.207442 -39.695727 5.764248 -12.579334 9.479043 0.049443 -0.185584 0.028072 -2.123029 -22.302744 11.919037 52.826948 79.497469 52.547644 4.527345 -16.008270 -16.206078 0.040819 0.173424 0.024033
